<?xml version="1.0" encoding="UTF-8"?>
<svg id="Layer_1" xmlns="http://www.w3.org/2000/svg" version="1.1" viewBox="0 0 1024 1024">
  <!-- Generator: Adobe Illustrator 29.6.0, SVG Export Plug-In . SVG Version: 2.1.1 Build 207)  -->
  <defs>
    <style>
      .st0 {
        fill: #ecb140;
      }

      .st1 {
        fill: #1c1c1b;
      }
    </style>
  </defs>
  <path class="st1" d="M506.74,98.24c8.4-1.32,16.72.1,23.93,4.59l322.41,193.21c.16.09.31.2.46.31,6.86,5.34,12.03,12.08,12.49,21.12v366.91c0,.11,0,.22,0,.33-1.04,17.36-18.28,24.6-31.11,32.71-95.9,60.66-195.06,116.38-291,177-19.31,11.22-25.93,18.34-48.11,6.45-.08-.04-.15-.08-.23-.13l-318.89-193.93c-8.86-5.48-13.83-13.67-14.71-24.06-.01-.14-.02-.28-.02-.42v-362.62c0-.16,0-.32.02-.48.96-9.58,5.65-18.77,14.1-23.64L499.5,100.8c.33-.2.69-.34,1.06-.45,2.03-.61,4.22-1.8,6.18-2.11ZM509.74,136.24c-2.39.37-5.39,1.85-7.76,2.82-.2.08-.39.18-.58.29l-293.56,176.75c-.1.06-.19.12-.28.19-9.08,6.42-12.64,11.48-13.57,22.98-.01.13-.02.26-.02.38v319.73c0,.11,0,.21,0,.32.85,12.72,4.34,21.56,16.12,27.71l291.43,176.3c.11.07.23.13.35.19,8.06,4.08,16.84,4.28,25.19.64,15.49-6.75,38.69-23.39,54.26-32.74,79.43-47.74,157.95-97.02,237.61-144.39,8.33-4.76,14.11-10.65,15.1-20.63.02-.16.02-.32.02-.48v-329.61c0-.16,0-.32-.02-.47-.92-9.31-6.26-15.03-13.69-20.05l-294.64-177.36c-4.85-2.62-10.51-3.42-15.95-2.57Z"/>
  <path class="st1" d="M717.48,416.23c.31,2.53-1.67,4.77-4.22,4.77h-80.26c-.25,0-.1-3.63-.45-5.04-13.23-53.12-47.53-87.42-103.06-93.95-130.74-15.37-184.57,104.92-170.35,217.35,9.31,73.62,49.96,126.72,125.48,138.52,1.43.22,6.38-.2,6.38.12v76.59c0,2.44-2.05,4.35-4.48,4.24-86.45-4.19-160.44-58.04-192.99-137.86-42.76-104.86-23.82-260.85,69.57-333.36,69.67-54.1,176.95-65.43,254.57-21.77,54.06,30.41,92.24,88.8,99.81,150.41Z"/>
  <path class="st0" d="M514,583c.02-22.91-.01-45.86,0-68.77,0-2.34,1.9-4.24,4.24-4.24l93.31-.04c112.16,5.08,110.96,174.29-1.05,182.03-11.47.79-23.64-.34-35.33-.13-2.31.04-4.16,1.93-4.16,4.25v62.65c0,2.34-1.9,4.24-4.24,4.24h-48.52c-2.39,0-4.25-2-4.19-4.39,0-.02,0-.03,0-.05,1.02-40.68-.09-81.84-.06-122.56.01-17.65-.02-35.35,0-53ZM571,638.76c0,2.34,1.9,4.24,4.24,4.24h25.26c31.32,0,45.62-31.45,36.54-58.54-3.81-11.35-17.31-22.46-29.54-22.46h-32.26c-2.34,0-4.24,1.9-4.24,4.24v72.52Z"/>
  <path class="st1" d="M514,631.85c0,2.33-1.88,4.23-4.21,4.25-54.44.29-90.19-37.59-99.47-89.91-15.16-85.41,20.4-167.79,118.22-161.22,44.94,3.01,77.17,36.81,82.04,80.37.28,2.5-1.71,4.67-4.22,4.67h-55.36c-.55,0-1.86-8.37-2.82-10.68-13.55-32.59-58.49-22.86-73,6.36-17.27,34.78-14.06,110.92,35.12,117,2.11.26,3.69,2.07,3.69,4.2-.01,14.98.01,29.99,0,44.97Z"/>
</svg>